<?xml version="1.0" encoding="utf-8"?>
<!-- Generator: Adobe Illustrator 24.2.1, SVG Export Plug-In . SVG Version: 6.00 Build 0)  -->
<svg version="1.1" xmlns="http://www.w3.org/2000/svg" xmlns:xlink="http://www.w3.org/1999/xlink" x="0px" y="0px"
	 viewBox="0 0 500 500" style="enable-background:new 0 0 500 500;" xml:space="preserve">
<style type="text/css">
	.st0{fill:#01A84D;stroke:#01A84D;stroke-miterlimit:10;}
	.st1{fill:url(#SVGID_1_);stroke:url(#SVGID_2_);stroke-miterlimit:10;}
	.st2{fill:url(#SVGID_3_);stroke:url(#SVGID_4_);stroke-miterlimit:10;}
	.st3{opacity:0.3;}
	.st4{fill:#232121;}
</style>
<g id="BACKGROUND">
</g>
<g id="OBJECTS">
	<g>
		<g>
			<g>
				<g>
					<path class="st0" d="M327.78,454.03c-48.27-3.14-94.11-23.8-128.58-57.74c-16.93-16.67-30.54-35.68-40.54-56.28l-58.61,0
						L-0.02,255.96l99.57-92.9h59.37c32.16-65.75,98.93-111.89,175.88-114.35c56.8-1.79,110.06,19.26,150.13,59.33l15.08,15.08
						l-82.6,105.78l-229.57-23.18c-3.67,12.21-5.91,25.02-6.51,38.22c-0.85,18.39,1.36,36.38,6.41,53.42l229.67-12.74l82.6,95.34
						l-15.08,15.08C443.4,436.57,387.03,457.89,327.78,454.03z M215.17,346.31c5.75,8.64,12.39,16.8,19.89,24.37
						c27.58,27.85,64.75,44.79,103.87,47.14c39.24,2.36,76.84-9.26,107.22-32.55l-37.61-54.97L215.17,346.31z M107,212.01
						c-14.97,14.53-17.57,18.69-41.83,43.95c21.92,25.52,28.65,33.11,43.16,47.69c10.26,2.04,42.75,0,42.75,0
						c-4.1-17.88-5.78-36.46-4.91-55.38c0.57-12.4,2.27-24.52,5.01-36.26H107z M215.4,169.35l191.79,22.57l38.96-61.53
						c-29.22-22.44-64.89-33.96-102.54-32.76C290.38,99.34,243.33,127.5,215.4,169.35z"/>
					<linearGradient id="SVGID_1_" gradientUnits="userSpaceOnUse" x1="61.2309" y1="260.1399" x2="61.2309" y2="260.1399">
						<stop  offset="0" style="stop-color:#D91AC0"/>
						<stop  offset="1" style="stop-color:#3103FF"/>
					</linearGradient>
					<linearGradient id="SVGID_2_" gradientUnits="userSpaceOnUse" x1="61.2309" y1="260.1399" x2="61.2309" y2="260.1399">
						<stop  offset="0" style="stop-color:#D91AC0"/>
						<stop  offset="1" style="stop-color:#3103FF"/>
					</linearGradient>
					<path class="st1" d="M61.23,260.14"/>
					<linearGradient id="SVGID_3_" gradientUnits="userSpaceOnUse" x1="61.2309" y1="255.5712" x2="61.2309" y2="255.5712">
						<stop  offset="0" style="stop-color:#D91AC0"/>
						<stop  offset="1" style="stop-color:#3103FF"/>
					</linearGradient>
					<linearGradient id="SVGID_4_" gradientUnits="userSpaceOnUse" x1="61.2309" y1="255.5712" x2="61.2309" y2="255.5712">
						<stop  offset="0" style="stop-color:#D91AC0"/>
						<stop  offset="1" style="stop-color:#3103FF"/>
					</linearGradient>
					<path class="st2" d="M61.23,255.57"/>
				</g>
			</g>
			<g class="st3">
				<path d="M295.35,106.81c-2.72,0.97-5.41,2.01-8.06,3.12C289.95,108.82,292.64,107.78,295.35,106.81z"/>
				<path d="M343.61,97.64c0.03,0,0.06,0,0.09,0c-0.06,0-0.11,0-0.17,0c-3.06,0.1-6.1,0.31-9.12,0.58
					C337.45,97.94,340.52,97.73,343.61,97.64z"/>
				<path d="M351.62,97.59c0.04,0,0.08,0,0.12,0C351.7,97.59,351.66,97.59,351.62,97.59z"/>
				<path class="st4" d="M235.68,368.71c-6.64-6.95-12.58-14.38-17.78-22.2h21.53c-8.8-13.22-15.51-27.56-19.99-42.66h-21.52
					c-5.05-17.04-7.26-35.03-6.41-53.42c0.61-13.21,2.85-26.02,6.51-38.22h21.5c4.6-15.29,11.44-29.64,20.14-42.66h-21.52
					c9.85-22.8,60.49-54.11,71.47-59.25c-55.37,23.42-95.28,77.18-98.18,140.13c-2.04,44.31,13.65,86.31,44.17,118.28
					c30.55,31.99,71.72,49.6,115.93,49.6c0.02,0,0.03,0,0.05,0C307.38,418.3,266.22,400.69,235.68,368.71z"/>
				<path d="M350.74,418.07c1.2-0.02,2.4-0.03,3.59-0.07C353.13,418.04,351.94,418.06,350.74,418.07z"/>
				<path d="M332.28,98.44c-2.39,0.25-4.77,0.55-7.13,0.9C327.5,98.99,329.88,98.69,332.28,98.44z"/>
				<path d="M323.01,99.67c-2.71,0.44-5.41,0.95-8.07,1.53C317.6,100.62,320.29,100.12,323.01,99.67z"/>
				<path d="M314.25,101.34c-6.11,1.36-12.08,3.08-17.91,5.12C302.17,104.41,308.15,102.7,314.25,101.34z"/>
			</g>
		</g>
	</g>
</g>
</svg>
